<svg height="512" viewBox="0 0 60 60" width="512" xmlns="http://www.w3.org/2000/svg"><g id="Page-1" fill="none" fill-rule="evenodd"><g id="022---Cloud-Offline" fill-rule="nonzero"><path id="Shape" d="m13 37h-1c-6.07513225 0-11-4.9248678-11-11s4.92486775-11 11-11c.623565-.0030798 1.2461215.0504735 1.86.16 1.427149-3.0326141 4.4212431-5.02097 7.77-5.16 1.9678376-6.08875505 8.0738821-9.84005753 14.3946544-8.84348326s10.976386 6.4446301 10.9753456 12.84348326c.019924.3497165.019924.7002835 0 1.05.34 0 .7-.05 1-.05 6.0751322.0000001 10.9999998 4.9248678 10.9999998 11s-4.9248676 10.9999999-10.9999998 11z" fill="#00bcd4"/><path id="Shape" d="m48 15c-.35 0-.71 0-1 .05.019924-.3497165.019924-.7002835 0-1.05 0-3.4478144-1.3696389-6.75441524-3.8076118-9.19238816-2.437973-2.43797292-5.7445738-3.80761184-9.1923882-3.80761184-.49788.00446883-.9952019.0345084-1.49.09 6.5501491.76600988 11.4889823 6.31521239 11.49 12.91.019924.3497165.019924.7002835 0 1.05.34 0 .7-.05 1-.05 5.6723409.0182317 10.4006953 4.3467764 10.9186843 9.9954462s-3.3442621 10.7649821-8.9186843 11.8145538v.19h1c6.0751322 0 11-4.9248678 11-11s-4.9248678-11-11-11z" fill="#00838f"/><path id="Shape" d="m40.83 9.15c-.2923118.00001923-.5699973-.12786225-.76-.35-1.5177498-1.77444941-3.7349995-2.79723347-6.07-2.8-.5522847 0-1-.44771525-1-1s.4477153-1 1-1c2.9180174.00022682 5.6903707 1.27499794 7.59 3.49.1724034.201559.2576705.46335301.2370412.72778336-.0206293.26443034-.145465.50983336-.3470412.68221664-.179713.15852397-.4103774.24724105-.65.25z" fill="#f5f5f5"/><circle id="Oval" cx="30" cy="40" fill="#e91e63" r="19"/><path id="Shape" d="m30 21c-.51 0-1 0-1.5.08 9.777224.9000644 17.2582767 9.1014346 17.2582767 18.92s-7.4810527 18.0199356-17.2582767 18.92c.5 0 1 .08 1.5.08 10.4934102 0 19-8.5065898 19-19s-8.5065898-19-19-19z" fill="#ad1457"/><path id="Shape" d="m32.83 40 6.58-6.59c.6795536-.7935206.6338645-1.9763883-.1048736-2.7151264s-1.9216058-.7844272-2.7151264-.1048736l-6.59 6.58-6.59-6.58c-.7935206-.6795536-1.9763883-.6338645-2.7151264.1048736s-.7844272 1.9216058-.1048736 2.7151264l6.58 6.59-6.58 6.59c-.5707523.4887798-.8193639 1.2562368-.6436203 1.9868379.1757436.7306012.7461812 1.3010388 1.4767824 1.4767824.7306011.1757436 1.4980581-.072868 1.9868379-.6436203l6.59-6.58 6.59 6.58c.7935206.6795536 1.9763883.6338645 2.7151264-.1048736s.7844272-1.9216058.1048736-2.7151264z" fill="#f5f5f5"/><g fill="#000"><path id="Shape" d="m48 14c-.0137806-6.75848529-4.8538456-12.54228148-11.5040745-13.74717535s-13.2118426 2.51313692-15.5959255 8.83717535c-3.1853678.34613608-6.0079851 2.2080208-7.58 5-.4379481-.0548953-.8786538-.0849434-1.32-.09-6.25732734.0059414-11.45978247 4.8190275-11.95149747 11.0570077-.49171501 6.2379803 3.89238111 11.8067358 10.07149747 12.7929923-.0806118.7138219-.12067617 1.4316411-.12 2.15 0 11.045695 8.954305 20 20 20s20-8.954305 20-20c.0006762-.7183589-.0393882-1.4361781-.12-2.15 6.1791164-.9862565 10.5632125-6.555012 10.0714975-12.7929923-.491715-6.2379802-5.6941702-11.0510663-11.9514975-11.0570077zm-18 44c-9.9411255 0-18-8.0588745-18-18s8.0588745-18 18-18 18 8.0588745 18 18-8.0588745 18-18 18zm19.57-22.13c-1.9502558-9.2526291-10.1140684-15.8750636-19.57-15.8750636s-17.6197442 6.6224345-19.57 15.8750636c-5.1356329-.8360498-8.77199199-5.4706754-8.36214272-10.6577486.40984926-5.1870731 4.72893812-9.1931103 9.93214272-9.2122514 1.9730774-.0063323 3.9027673.5788444 5.54 1.68.3001031.2000687.6841452.2248368 1.0074614.0649743.3233161-.1598626.5367869-.4800688.56-.8400001.023213-.3599312-.1473583-.7049055-.4474614-.9049742-1.0022971-.6732402-2.1016771-1.1892069-3.26-1.53 1.4344209-2.0914501 3.7755523-3.3788869 6.31-3.47h.29c1.7321407-.0073138 3.4186758.5548645 4.8 1.6.4418278.3313708 1.0686292.2418278 1.4-.2s.2418278-1.0686292-.2-1.4c-1.4368206-1.08209346-3.1410594-1.75272698-4.93-1.94 2.3315558-5.14486251 7.9354541-7.96718928 13.457282-6.77757612s9.466469 6.06906094 9.472718 11.71757612v.17c-1.6662638.2699658-3.2552963.893985-4.66 1.83-.4583963.3092795-.5792795.9316037-.27 1.39s.9316037.5792795 1.39.27c1.6394914-1.0940872 3.5690082-1.6722457 5.54-1.66 5.2032046.0191411 9.5222935 4.0251783 9.9321427 9.2122514.4098493 5.1870732-3.2265098 9.8216988-8.3621427 10.6577486z"/><path id="Shape" d="m41 32c-.0007002-.7953814-.3172301-1.5579306-.88-2.12-1.1884135-1.1276288-3.0515865-1.1276288-4.24 0l-5.88 5.88-5.88-5.88c-1.1884135-1.1276288-3.0515865-1.1276288-4.24 0-1.1698135 1.1712702-1.1698135 3.0687298 0 4.24l5.88 5.88-5.88 5.88c-1.1698135 1.1712702-1.1698135 3.0687298 0 4.24 1.1884135 1.1276288 3.0515865 1.1276288 4.24 0l5.88-5.88 5.88 5.88c.7478823.8026127 1.8742222 1.1329967 2.9371556.8615422 1.0629335-.2714546 1.892932-1.1014531 2.1643866-2.1643866.2714545-1.0629334-.0589295-2.1892733-.8615422-2.9371556l-5.88-5.88 5.88-5.88c.5627699-.5620694.8792998-1.3246186.88-2.12zm-2.29.71-6.59 6.58c-.1893127.1877666-.2957983.4433625-.2957983.71s.1064856.5222334.2957983.71l6.59 6.58c.1893127.1877666.2957983.4433625.2957983.71s-.1064856.5222334-.2957983.71c-.1877666.1893127-.4433625.2957983-.71.2957983s-.5222334-.1064856-.71-.2957983l-6.58-6.59c-.1877666-.1893127-.4433625-.2957983-.71-.2957983s-.5222334.1064856-.71.2957983l-6.58 6.59c-.1877666.1893127-.4433625.2957983-.71.2957983s-.5222334-.1064856-.71-.2957983c-.1893127-.1877666-.2957983-.4433625-.2957983-.71s.1064856-.5222334.2957983-.71l6.59-6.58c.1893127-.1877666.2957983-.4433625.2957983-.71s-.1064856-.5222334-.2957983-.71l-6.59-6.58c-.1893127-.1877666-.2957983-.4433625-.2957983-.71s.1064856-.5222334.2957983-.71c.1877666-.1893127.4433625-.2957983.71-.2957983s.5222334.1064856.71.2957983l6.58 6.59c.1877666.1893127.4433625.2957983.71.2957983s.5222334-.1064856.71-.2957983l6.58-6.59c.1877666-.1893127.4433625-.2957983.71-.2957983s.5222334.1064856.71.2957983c.1893127.1877666.2957983.4433625.2957983.71s-.1064856.5222334-.2957983.71z"/></g></g></g></svg>